<mxfile host="app.diagrams.net" modified="2023-05-01T07:59:26.474Z" agent="Mozilla/5.0 (Windows NT 10.0; Win64; x64) AppleWebKit/537.36 (KHTML, like Gecko) Chrome/112.0.0.0 Safari/537.36 Edg/112.0.1722.64" etag="hXDsgF8d4XECtCC0LMMw" version="21.2.3" type="github">
  <diagram name="第 1 页" id="euEaf28D1Kuny6yM_ITr">
    <mxGraphModel dx="1050" dy="541" grid="1" gridSize="10" guides="1" tooltips="1" connect="1" arrows="1" fold="1" page="1" pageScale="1" pageWidth="827" pageHeight="1169" math="0" shadow="0">
      <root>
        <mxCell id="0" />
        <mxCell id="1" parent="0" />
        <mxCell id="U6TWn9f8TfeEKBh5Oc99-87" value="" style="edgeStyle=orthogonalEdgeStyle;rounded=0;orthogonalLoop=1;jettySize=auto;html=1;" edge="1" parent="1" source="U6TWn9f8TfeEKBh5Oc99-3" target="U6TWn9f8TfeEKBh5Oc99-86">
          <mxGeometry relative="1" as="geometry" />
        </mxCell>
        <mxCell id="U6TWn9f8TfeEKBh5Oc99-3" value="iCareer职素平台" style="rounded=1;whiteSpace=wrap;html=1;fontStyle=1;fontSize=14;" vertex="1" parent="1">
          <mxGeometry x="40" y="380" width="150" height="40" as="geometry" />
        </mxCell>
        <mxCell id="U6TWn9f8TfeEKBh5Oc99-86" value="是否已经注册" style="rhombus;whiteSpace=wrap;html=1;fontSize=14;rounded=0;fontStyle=1;" vertex="1" parent="1">
          <mxGeometry x="229" y="375" width="105" height="50" as="geometry" />
        </mxCell>
        <mxCell id="U6TWn9f8TfeEKBh5Oc99-90" value="用户注册" style="rounded=1;whiteSpace=wrap;html=1;" vertex="1" parent="1">
          <mxGeometry x="241.5" y="490" width="80" height="30" as="geometry" />
        </mxCell>
      </root>
    </mxGraphModel>
  </diagram>
</mxfile>
